<svg xmlns="http://www.w3.org/2000/svg" viewBox="0 0 120 120">
  <rect width="120" height="120" rx="24" fill="#2E4036" />
  
  <g stroke="white" stroke-width="5" stroke-linecap="round" stroke-linejoin="round">
    <path d="M60 38 L60 18 M54 18 L66 18" />
    <path d="M60 82 L60 102 M54 102 L66 102" />
    <path d="M38 60 L18 60 M18 54 L18 66" />
    <path d="M82 60 L102 60 M102 54 L102 66" />
    <path d="M75.5 44.5 L89.7 30.3 M86.2 26.8 L93.2 33.8" />
    <path d="M75.5 75.5 L89.7 89.7 M93.2 86.2 L86.2 93.2" />
    <path d="M44.5 75.5 L30.3 89.7 M33.8 93.2 L26.8 86.2" />
    <path d="M44.5 44.5 L30.3 30.3 M26.8 33.8 L33.8 26.8" />
  </g>
  
  <circle cx="60" cy="60" r="22" stroke="white" stroke-width="5" fill="none" />
  <circle cx="60" cy="60" r="10" stroke="white" stroke-width="5" fill="none" />
  <circle cx="60" cy="60" r="3.5" fill="white" />
  
  <g fill="white">
    <circle cx="60" cy="44" r="1.5" />
    <circle cx="60" cy="76" r="1.5" />
    <circle cx="44" cy="60" r="1.5" />
    <circle cx="76" cy="60" r="1.5" />
    <circle cx="71.3" cy="48.7" r="1.5" />
    <circle cx="71.3" cy="71.3" r="1.5" />
    <circle cx="48.7" cy="71.3" r="1.5" />
    <circle cx="48.7" cy="48.7" r="1.5" />
  </g>
</svg>
